<svg width="460" height="460" viewBox="0 0 460 460" fill="none" xmlns="http://www.w3.org/2000/svg">
<g clip-path="url(#clip0_505_0)">
<path d="M400.075 388.904C381.632 412.65 353.901 429.302 324.016 433.363C304.963 435.955 285.491 433.769 266.473 436.6C242.465 440.183 220.3 451.555 196.59 456.727C162.744 464.121 126.911 458.435 94.8603 445.248C69.6192 434.844 26.4258 416.186 9.58643 388.904H400.075Z" fill="#512F2E"/>
<path d="M227.469 395.82C188.931 386.909 148.742 390.564 109.366 394.255C105.776 394.589 102.054 394.972 98.9899 396.859C95.926 398.746 93.7837 402.652 95.0882 406.009C96.285 408.959 99.4686 410.464 102.485 411.468C121.634 417.93 142.411 416.389 162.601 415.469C228.02 412.507 294.252 416.903 358.39 403.417C364.925 402.043 371.914 400.192 376.115 395.055C364.087 388.951 349.581 390.624 336.62 394.327C323.658 398.03 311.115 403.656 297.711 405.137C290.183 405.961 287.658 398.077 281.422 395.223C276.635 393.025 273.511 393.574 268.604 395.055C253.392 399.618 243.207 399.463 227.469 395.82Z" fill="url(#paint0_linear_505_0)"/>
<path d="M180.361 389.035C178.525 389.024 176.726 388.517 175.155 387.567C173.584 386.617 172.301 385.26 171.442 383.64C170.582 382.02 170.179 380.198 170.274 378.367C170.37 376.537 170.96 374.766 171.984 373.244C172.963 371.788 174.303 370.609 175.875 369.825C177.446 369.04 179.195 368.675 180.95 368.766C182.704 368.858 184.406 369.401 185.887 370.345C187.368 371.288 188.579 372.599 189.401 374.148C190.224 375.698 190.629 377.435 190.578 379.188C190.527 380.941 190.022 382.651 189.111 384.15C188.2 385.65 186.916 386.889 185.382 387.745C183.848 388.601 182.119 389.045 180.361 389.035ZM176.903 376.577C176.443 377.261 176.197 378.066 176.195 378.89C176.193 379.714 176.437 380.52 176.894 381.206C177.351 381.893 178.001 382.428 178.763 382.745C179.525 383.063 180.365 383.148 181.175 382.989C181.985 382.831 182.73 382.436 183.316 381.855C183.902 381.275 184.302 380.534 184.466 379.726C184.63 378.918 184.55 378.08 184.237 377.318C183.924 376.555 183.392 375.902 182.707 375.442C181.786 374.826 180.658 374.599 179.57 374.812C178.482 375.025 177.523 375.659 176.903 376.577Z" fill="#2E2E3F"/>
<path d="M105.907 389.035C104.068 389.028 102.267 388.523 100.693 387.574C99.1204 386.625 97.8351 385.267 96.9749 383.646C96.1148 382.025 95.7119 380.2 95.8095 378.368C95.907 376.536 96.5013 374.765 97.5288 373.244C98.5078 371.788 99.8484 370.609 101.42 369.825C102.991 369.04 104.74 368.675 106.495 368.766C108.249 368.858 109.951 369.401 111.432 370.345C112.913 371.288 114.124 372.599 114.947 374.148C115.769 375.698 116.174 377.435 116.123 379.188C116.073 380.941 115.567 382.651 114.656 384.15C113.746 385.65 112.461 386.889 110.927 387.745C109.394 388.601 107.664 389.045 105.907 389.035ZM102.46 376.577C101.998 377.261 101.751 378.066 101.748 378.891C101.746 379.716 101.988 380.523 102.446 381.21C102.903 381.897 103.554 382.433 104.316 382.751C105.079 383.068 105.919 383.153 106.73 382.994C107.541 382.836 108.286 382.44 108.872 381.858C109.457 381.277 109.857 380.534 110.02 379.726C110.183 378.917 110.102 378.079 109.787 377.316C109.473 376.554 108.939 375.901 108.252 375.442C107.333 374.826 106.207 374.6 105.121 374.813C104.035 375.026 103.078 375.66 102.46 376.577Z" fill="#2E2E3F"/>
<path d="M263.421 178.493C263.061 179.673 262.533 180.796 261.853 181.826C260.512 183.418 258.815 184.674 256.898 185.493C249.311 189.375 237.749 193.556 231.31 199.17C230.529 199.79 229.881 200.562 229.407 201.44C228.486 203.434 229.407 205.74 230.257 207.747C230.639 208.882 231.316 209.896 232.22 210.685C233.86 211.879 236.134 211.366 238.084 210.792C245.566 208.566 252.925 205.947 260.13 202.945C264.161 201.322 268.075 199.427 271.847 197.271C273.359 196.495 274.673 195.383 275.689 194.022C276.402 192.795 276.877 191.446 277.089 190.044C278.451 182.805 279.366 175.489 279.83 168.137L281.266 150.889C281.553 147.568 291.678 135.945 288.626 133.664C282.642 129.196 273.941 141.356 272.577 143.853C268.723 150.889 264.917 174.241 263.421 178.493Z" fill="#68E1FD"/>
<path d="M263.421 178.493C263.061 179.673 262.533 180.796 261.853 181.826C260.512 183.418 258.815 184.674 256.898 185.493C249.311 189.375 237.749 193.556 231.31 199.17C230.529 199.79 229.881 200.562 229.407 201.44C228.486 203.434 229.407 205.74 230.257 207.747C230.639 208.882 231.316 209.896 232.22 210.685C233.86 211.879 236.134 211.366 238.084 210.792C245.566 208.566 252.925 205.947 260.13 202.945C264.161 201.322 268.075 199.427 271.847 197.271C273.359 196.495 274.673 195.383 275.689 194.022C276.402 192.795 276.877 191.446 277.089 190.044C278.451 182.805 279.366 175.489 279.83 168.137L281.266 150.889C281.553 147.568 291.678 135.945 288.626 133.664C282.642 129.196 273.941 141.356 272.577 143.853C268.723 150.889 264.917 174.241 263.421 178.493Z" fill="#1D4289"/>
<path d="M356.366 365.312C357.334 366.854 357.836 368.641 357.814 370.461C357.702 371.144 357.445 371.795 357.061 372.372C356.677 372.949 356.176 373.438 355.589 373.807C355.002 374.177 354.343 374.417 353.656 374.514C352.969 374.61 352.269 374.56 351.603 374.367C350.519 373.919 349.534 373.261 348.707 372.431C338.689 363.544 330.754 352.591 323.573 341.243C321.634 338.161 319.755 335.044 318.104 331.807C312.523 320.837 309.593 308.716 309.546 296.414C309.471 295.708 309.644 294.999 310.037 294.407C310.449 293.99 310.98 293.711 311.557 293.607C316.512 292.221 324.231 292.09 328.612 295.315C333.531 298.898 332.346 310.186 332.13 315.323C331.88 317.514 332.101 319.733 332.777 321.833C333.674 323.629 334.89 325.248 336.367 326.611C346.409 337.373 349.891 352.292 356.366 365.312Z" fill="#F3BD8F"/>
<path d="M294.251 340.813C295.288 354.768 293.443 368.786 288.829 381.999C288.548 383.195 287.905 384.276 286.986 385.093C286.365 385.475 285.652 385.685 284.923 385.702C284.193 385.719 283.472 385.542 282.833 385.189C279.59 383.612 278.453 380.172 277.902 376.827C275.495 362.068 274.35 347.13 274.479 332.177C274.479 325.118 274.683 318.393 274.132 311.369C273.582 304.142 272.768 296.928 272.768 289.665C272.633 288.945 272.77 288.201 273.151 287.575C273.452 287.298 273.812 287.091 274.203 286.969C274.594 286.848 275.007 286.814 275.413 286.87C280.607 286.87 290.086 283.884 294.131 287.18C299.457 291.517 290.936 310.581 290.086 316.099C288.662 325.309 292.671 328.044 293.856 337.134C294.011 338.424 294.143 339.619 294.251 340.813Z" fill="#F5BD8D"/>
<path d="M268.101 289.749C267.979 291.148 268.329 292.548 269.094 293.726C269.891 294.548 270.91 295.12 272.026 295.375C277.723 297.143 283.731 297.513 289.68 297.883C291.499 297.991 293.51 298.038 294.91 296.892C295.778 296.051 296.423 295.008 296.789 293.858L303.395 277.72C302.901 283.416 302.753 289.136 302.952 294.849C302.857 296.074 303.219 297.291 303.97 298.265C304.932 299.005 306.134 299.363 307.345 299.269C316.514 299.613 325.693 298.948 334.716 297.286C338.211 284.421 338.307 270.816 336.571 257.605C335.889 252.456 334.872 247.213 332.131 242.793C331.461 241.585 330.509 240.556 329.354 239.795C327.627 238.968 325.712 238.61 323.801 238.756C309.942 238.612 295.867 238.29 282.092 240.249C277.795 240.858 275.545 242.196 274.049 246.388C271.894 252.995 270.391 259.796 269.561 266.695C268.462 274.329 267.974 282.038 268.101 289.749Z" fill="#2E2E3F"/>
<path d="M334.717 322.715L335.184 323.88L335.98 325.204C370.436 370.092 360.121 368.503 347.918 372.475C342.878 378.169 311.707 336.459 307.197 331.163C305.34 329.309 303.261 325.337 303.616 325.337C302.865 324.363 302.857 321.504 302.953 320.279C302.768 314.965 302.888 284.215 303.312 278.915C303.312 278.783 303.312 278.64 303.312 278.508C303.312 278.377 303.312 277.983 303.372 277.72C301.17 283.083 294.013 314.915 291.811 320.279C297.78 339.108 292.216 379.05 291.348 379.891C289.948 381.085 287.937 380.99 286.118 380.882H285.292C280.3 380.567 283.434 380.096 278.639 378.867C277.985 378.699 277.335 378.515 276.69 378.313C275.571 378.063 274.551 377.49 273.758 376.664C272.992 375.486 267.472 314.583 267.594 313.183C267.463 305.452 268.52 274.312 269.622 266.659C270.45 259.794 271.945 253.025 274.086 246.448C275.582 242.256 277.832 240.918 282.129 240.309C295.904 238.35 309.979 238.672 323.838 238.815C325.566 238.716 327.296 238.985 328.912 239.604C329.078 239.675 329.238 239.759 329.391 239.855C330.545 240.616 331.498 241.645 332.168 242.853C334.909 247.272 335.926 252.516 336.608 257.665C338.331 270.816 334.654 321.762 334.717 322.715Z" fill="url(#paint1_linear_505_0)"/>
<path d="M334.716 297.286L332.562 297.656C332.048 297.391 331.549 297.1 331.066 296.784C329.88 296.131 328.883 295.185 328.169 294.037C327.647 292.874 327.393 291.608 327.427 290.334C327.032 279.679 329.067 268.833 326.901 258.429C326.123 254.678 324.567 251.262 323.454 247.679C322.437 244.37 324.711 242.399 327.379 240.512C327.85 240.162 328.351 239.854 328.875 239.592C329.041 239.663 329.201 239.747 329.354 239.843C330.508 240.604 331.461 241.633 332.131 242.841C334.872 247.261 335.889 252.504 336.571 257.653C338.33 270.816 338.211 284.421 334.716 297.286Z" fill="url(#paint2_linear_505_0)"/>
<path d="M303.383 277.744C301.181 283.107 298.991 288.494 296.788 293.858C296.423 295.008 295.777 296.051 294.909 296.892C293.509 298.086 291.498 297.991 289.679 297.883H288.853C288.544 297.717 288.251 297.521 287.98 297.298C286.966 296.442 286.243 295.292 285.913 294.008C285.583 292.724 285.661 291.369 286.137 290.131C286.723 288.94 287.463 287.832 288.339 286.834C293.557 280.157 296.405 271.999 299.182 263.995C300.675 265.72 301.814 267.721 302.533 269.884C303.304 272.429 303.592 275.094 303.383 277.744Z" fill="url(#paint3_linear_505_0)"/>
<path d="M300.691 123.415C300.635 125.571 299.782 127.63 298.298 129.197C296.095 131.179 292.756 131.06 289.992 132.171C289.643 132.286 289.327 132.483 289.07 132.744C288.865 132.985 288.722 133.272 288.651 133.58C288.297 135.019 288.41 136.534 288.974 137.904C289.818 139.956 291.102 141.799 292.736 143.303C294.369 144.808 296.312 145.937 298.429 146.612C302.685 147.942 307.194 148.257 311.594 147.532C313.054 147.447 314.477 147.039 315.759 146.338C317.119 145.304 318.201 143.949 318.907 142.396C319.762 140.978 320.335 139.408 320.594 137.773C320.712 136.95 320.613 136.111 320.307 135.338C320.001 134.565 319.497 133.885 318.847 133.365C318.236 132.995 317.586 132.695 316.908 132.469C315.843 132.061 314.821 131.549 313.856 130.941C312.866 130.434 312.096 129.585 311.69 128.552C311.523 127.679 311.56 126.78 311.798 125.924C312.343 123.018 312.343 120.037 311.798 117.132C311.668 116.271 311.401 115.437 311.008 114.66C310.639 113.999 310.124 113.431 309.501 112.999C308.879 112.567 308.166 112.282 307.417 112.167C306.668 112.052 305.902 112.109 305.178 112.334C304.454 112.559 303.792 112.946 303.24 113.465C300.416 116.033 301.026 120.095 300.691 123.415Z" fill="#F3BD8F"/>
<path d="M287.441 107.97C287.279 109.951 287.445 111.944 287.932 113.871C289.344 118.446 294.191 121.396 298.991 121.588C300.565 121.711 302.144 121.41 303.562 120.716C304.375 120.253 305.123 119.687 305.789 119.031C309.14 115.973 312.227 112.318 313.245 107.899C313.592 106.222 313.737 104.509 313.676 102.798C313.718 100.278 313.28 97.7727 312.383 95.4162C311.488 93.3343 310.069 91.5187 308.263 90.1457C306.458 88.7727 304.327 87.889 302.078 87.5803C297.447 86.995 293.102 89.3362 289.715 92.2389C288.016 93.6962 288.267 96.5629 288.052 98.7489C287.752 101.795 287.549 104.889 287.441 107.97Z" fill="#F3BD8F"/>
<path d="M288.017 82.4919C286.724 84.7017 285.851 87.2699 283.852 88.8586C283.026 89.5036 282.057 89.9694 281.291 90.6742C280.306 91.7113 279.731 93.07 279.674 94.498C279.617 95.9259 280.08 97.3261 280.979 98.4384C281.924 99.5138 283.149 100.307 284.518 100.728C285.888 101.15 287.347 101.184 288.735 100.827C291.515 100.053 293.892 98.2447 295.377 95.7747C296.371 94.2218 297.256 92.3345 298.968 91.7612C299.727 91.5892 300.515 91.5979 301.27 91.7868C302.025 91.9756 302.724 92.3392 303.312 92.8482C304.569 93.756 305.622 94.9505 306.903 95.7627C307.667 96.1543 308.4 96.6057 309.093 97.1125C311.151 98.8923 310.84 102.106 310.362 104.781C311.223 105.044 311.391 103.503 312.145 103.013C312.899 102.524 313.772 103.24 313.904 104.041C313.948 104.85 313.716 105.65 313.246 106.31C311.283 109.738 308.961 113.107 308.303 116.989C308.17 117.506 308.195 118.051 308.375 118.554C308.77 119.151 309.377 119.578 310.074 119.748C311.272 120.266 312.563 120.53 313.868 120.525C314.521 120.514 315.161 120.35 315.737 120.044C316.314 119.739 316.809 119.302 317.183 118.769C317.553 118.077 317.777 117.317 317.842 116.535C318.005 113.945 318.357 111.37 318.895 108.831C320.343 103.838 324.64 99.4896 324.005 94.3413C323.54 92.0143 322.563 89.8193 321.145 87.9149C320.316 86.4679 319.303 85.1347 318.129 83.9492C316.975 82.9631 315.705 82.1207 314.347 81.4407C311.544 79.7727 308.476 78.5969 305.275 77.9648C301.481 77.3914 298.094 78.6217 294.384 78.8009C291.464 78.9323 289.644 79.6371 288.017 82.4919Z" fill="#2E2E3F"/>
<path d="M324.166 246.265L324.151 246.267L324.136 246.271C310.445 249.301 296.253 249.277 282.574 246.2C281.149 245.874 279.682 245.458 278.426 244.808C277.179 244.163 276.173 243.305 275.611 242.109C275.086 240.717 274.889 239.222 275.037 237.742L275.039 237.723L275.04 237.704L276.021 193.4L275.521 193.389L276.021 193.4L276.021 193.384C276.392 176.606 276.764 159.806 279.221 143.249C279.934 139.888 281.27 136.69 283.16 133.819C283.452 133.429 284.049 133.129 285.032 132.875C285.801 132.676 286.719 132.524 287.765 132.352C288.043 132.306 288.331 132.259 288.628 132.208C291.315 131.753 294.598 131.085 297.635 129.223C297.63 129.263 297.625 129.305 297.62 129.349C297.611 129.428 297.6 129.515 297.59 129.61C297.554 129.929 297.518 130.307 297.514 130.717C297.505 131.536 297.621 132.506 298.128 133.435C298.639 134.372 299.525 135.221 300.974 135.832C302.563 136.506 304.17 136.203 305.675 135.531C307.105 134.892 308.514 133.886 309.811 132.959C309.869 132.918 309.928 132.876 309.985 132.835C311.363 131.852 312.584 131.002 313.659 130.65C314.185 130.478 314.634 130.441 315.026 130.539C315.409 130.635 315.791 130.875 316.163 131.363L316.164 131.365C316.745 132.121 317.617 132.514 318.542 132.743C319.46 132.971 320.504 133.054 321.496 133.132L321.513 133.134C322.531 133.214 323.496 133.292 324.326 133.496C325.155 133.699 325.774 134.012 326.159 134.508C326.874 135.43 327.481 136.912 327.986 138.843C328.489 140.763 328.877 143.076 329.181 145.62C330.11 153.425 330.201 163.212 330.265 170.105C330.29 172.784 330.31 175.026 330.375 176.544L330.375 176.544L330.375 176.55C330.629 181.23 330.721 186.236 330.813 191.363L330.816 191.55C330.907 196.614 331 201.793 331.252 206.872C331.761 217.147 332.921 227.076 336.059 234.904L336.059 234.904L336.063 234.913C336.676 236.364 336.211 237.913 335.147 239.449C334.091 240.975 332.514 242.383 331.127 243.478C329.047 244.919 326.667 245.871 324.166 246.265ZM297.667 128.716C297.668 128.716 297.668 128.717 297.668 128.717L297.667 128.716Z" fill="#63666A" stroke="#1D4289"/>
<path d="M331.426 243.88C329.281 245.369 326.826 246.353 324.245 246.759C320.808 247.519 317.332 248.089 313.833 248.467L312.851 248.336C315.412 239.974 315.532 231.183 315.46 222.487C315.46 217.709 315.317 212.871 315.221 208.069C315.161 205.035 315.053 201.846 313.486 199.254C311.918 196.662 308.351 195.013 305.742 196.578C310.23 193.879 313.904 182.459 315.747 177.777C318.398 170.993 320.254 163.927 321.277 156.718C321.971 151.773 321.708 143.077 329.296 145.418L329.714 145.561C331.007 156.419 330.684 171.159 330.911 176.523C331.929 195.288 330.349 219.226 336.56 234.718C337.949 238.087 334.226 241.67 331.426 243.88Z" fill="url(#paint4_linear_505_0)"/>
<path d="M288.543 378.201C288.976 378.238 289.379 378.439 289.668 378.762C289.85 379.132 289.921 379.547 289.871 379.957C289.871 382.346 291.391 384.508 291.308 386.873C291.248 388.987 289.931 390.97 290.111 393.084C290.111 393.503 290.218 393.992 289.919 394.279C289.725 394.439 289.488 394.539 289.237 394.566C283.229 395.712 277.193 396.712 271.129 397.564C270.01 397.861 268.82 397.733 267.79 397.206C267.324 396.85 266.957 396.381 266.725 395.844C265.085 392.511 266.545 388.426 268.771 385.452C274.217 378.129 279.471 376.373 288.543 378.201Z" fill="#2E2E3F"/>
<path d="M364.17 377.269C363.747 379.174 362.662 380.867 361.106 382.047C357.253 385.6 352.847 388.505 348.061 390.648C347.096 391.188 345.99 391.421 344.889 391.317C344.054 391.076 343.322 390.567 342.805 389.87C342.288 389.173 342.016 388.326 342.029 387.458C342.088 385.724 342.538 384.026 343.345 382.489C345.655 377.162 347.259 369.35 353.423 367.236C358.808 365.432 364.745 371.966 364.17 377.269Z" fill="#2E2E3F"/>
<path d="M288.543 378.201C288.976 378.238 289.379 378.439 289.668 378.762C289.85 379.132 289.921 379.547 289.871 379.957C289.871 382.346 291.391 384.508 291.308 386.873C291.248 388.987 289.931 390.97 290.111 393.084C290.111 393.503 290.218 393.992 289.919 394.279C289.725 394.439 289.488 394.539 289.237 394.566C283.229 395.712 277.193 396.712 271.129 397.564C270.01 397.861 268.82 397.733 267.79 397.206C267.324 396.85 266.957 396.381 266.725 395.844C265.085 392.511 266.545 388.426 268.771 385.452C274.217 378.129 279.471 376.373 288.543 378.201Z" fill="url(#paint5_linear_505_0)"/>
<path d="M361.106 382.071C357.253 385.624 352.847 388.529 348.061 390.672C347.097 391.211 345.99 391.445 344.889 391.34" fill="url(#paint6_linear_505_0)"/>
<path d="M319.684 177.167C319.891 178.665 319.731 180.189 319.217 181.611C318.355 183.582 316.357 184.776 314.43 185.84L271.978 209.813C269.992 210.936 267.861 212.202 267.012 214.328C265.144 219.106 270.997 223.394 276.083 223.777C281.409 224.171 286.651 222.582 291.702 220.826C307.657 215.335 323.066 208.377 337.732 200.042C339.544 199.37 341.064 198.086 342.026 196.412C342.988 194.738 343.332 192.781 342.998 190.88C343.04 179.185 342.143 167.506 340.317 155.953C339.324 149.634 337.924 143.029 333.651 138.239C327.332 131.072 315.794 130.857 314.801 141.357C313.7 153.278 318.882 165.438 319.684 177.167Z" fill="#68E1FD"/>
<path d="M319.684 177.167C319.891 178.665 319.731 180.189 319.217 181.611C318.355 183.582 316.357 184.776 314.43 185.84L271.978 209.813C269.992 210.936 267.861 212.202 267.012 214.328C265.144 219.106 270.997 223.394 276.083 223.777C281.409 224.171 286.651 222.582 291.702 220.826C307.657 215.335 323.066 208.377 337.732 200.042C339.544 199.37 341.064 198.086 342.026 196.412C342.988 194.738 343.332 192.781 342.998 190.88C343.04 179.185 342.143 167.506 340.317 155.953C339.324 149.634 337.924 143.029 333.651 138.239C327.332 131.072 315.794 130.857 314.801 141.357C313.7 153.278 318.882 165.438 319.684 177.167Z" fill="#1D4289"/>
<path d="M261.555 213.791C258.492 213.782 255.54 214.934 253.297 217.016C252.203 218.078 251.467 219.453 251.188 220.95C250.91 222.447 251.103 223.994 251.741 225.377C252.195 226.304 252.987 227.022 253.955 227.384C254.809 227.619 255.715 227.59 256.552 227.3C258.946 226.572 260.92 224.72 263.266 223.717C263.834 223.438 264.482 223.367 265.097 223.514C265.493 223.714 265.869 223.95 266.222 224.219C266.715 224.487 267.264 224.637 267.825 224.656C268.386 224.675 268.944 224.562 269.454 224.326C270.468 223.836 271.322 223.07 271.919 222.116C272.786 220.919 273.209 219.458 273.116 217.983C272.877 215.714 271.56 214.985 269.597 214.758C266.904 214.471 264.319 213.695 261.555 213.791Z" fill="#F3BD8F"/>
<path d="M222.119 206.421C220.988 207.806 220.211 209.446 219.857 211.199C219.669 212.028 219.698 212.892 219.941 213.707C220.287 214.5 220.862 215.172 221.594 215.636C222.326 216.1 223.179 216.335 224.046 216.311C225.782 216.238 227.469 215.715 228.941 214.794C231.676 213.22 234.288 211.444 236.756 209.479C237.268 209.131 237.724 208.708 238.109 208.224C238.567 207.478 238.757 206.597 238.646 205.728C238.535 204.859 238.13 204.054 237.498 203.446C233.453 199.397 225.159 202.658 222.119 206.421Z" fill="#F3BD8F"/>
<path d="M183.748 344.397H82.8794L43.7312 237.967H214.111L183.748 344.397ZM87.0563 338.424H179.212L206.176 243.916H52.3005L87.0563 338.424Z" fill="#63666A"/>
<path d="M223.556 344.397H122.675L83.5391 237.967H256.839L223.556 344.397ZM126.876 338.424H219.032L245.996 243.916H92.1682L126.876 338.424Z" fill="#63666A"/>
<path d="M224.153 344.457H176.375L197.775 269.144L215.44 214.448L263.624 215.093L224.153 344.457ZM184.286 338.484H219.724L255.629 220.958L219.82 220.48L203.472 270.876L184.286 338.484Z" fill="#63666A"/>
<path d="M224.058 374.199H107.104V368.227H218.074V341.435H224.058V374.199Z" fill="#63666A"/>
<path d="M184.909 374.199H89.6895V368.227H178.925V341.435H184.909V374.199Z" fill="#63666A"/>
<path d="M204.765 389.035C202.755 389.035 200.79 388.44 199.12 387.326C197.449 386.212 196.146 384.628 195.377 382.775C194.608 380.922 194.407 378.883 194.799 376.915C195.191 374.948 196.159 373.141 197.58 371.723C199.001 370.305 200.811 369.339 202.782 368.947C204.753 368.556 206.796 368.757 208.653 369.524C210.51 370.292 212.097 371.592 213.213 373.26C214.33 374.927 214.926 376.888 214.926 378.894C214.926 381.583 213.855 384.163 211.95 386.065C210.044 387.967 207.46 389.035 204.765 389.035ZM204.765 374.701C203.939 374.701 203.131 374.946 202.444 375.404C201.757 375.862 201.222 376.513 200.906 377.275C200.59 378.036 200.507 378.874 200.668 379.683C200.829 380.492 201.227 381.235 201.811 381.818C202.395 382.401 203.14 382.798 203.95 382.959C204.76 383.119 205.6 383.037 206.363 382.721C207.126 382.406 207.779 381.871 208.238 381.186C208.697 380.5 208.942 379.694 208.942 378.87C208.935 377.768 208.492 376.714 207.71 375.938C206.927 375.161 205.868 374.725 204.765 374.725V374.701Z" fill="#2E2E3F"/>
<path d="M132.178 389.035C130.34 389.028 128.538 388.523 126.965 387.574C125.392 386.625 124.107 385.267 123.246 383.646C122.386 382.025 121.983 380.2 122.081 378.368C122.178 376.536 122.773 374.765 123.8 373.244C124.779 371.788 126.12 370.609 127.691 369.825C129.263 369.04 131.011 368.675 132.766 368.766C134.521 368.858 136.222 369.401 137.703 370.345C139.185 371.288 140.396 372.599 141.218 374.148C142.04 375.698 142.446 377.435 142.395 379.188C142.344 380.941 141.839 382.651 140.928 384.15C140.017 385.65 138.732 386.889 137.199 387.745C135.665 388.601 133.935 389.045 132.178 389.035ZM128.719 376.577C128.258 377.261 128.01 378.066 128.008 378.891C128.005 379.716 128.248 380.523 128.705 381.21C129.162 381.897 129.813 382.433 130.576 382.751C131.339 383.068 132.178 383.153 132.989 382.994C133.8 382.836 134.546 382.44 135.131 381.858C135.717 381.277 136.117 380.534 136.28 379.726C136.443 378.917 136.362 378.079 136.047 377.316C135.732 376.554 135.198 375.901 134.512 375.442C133.592 374.829 132.466 374.605 131.381 374.818C130.296 375.03 129.339 375.663 128.719 376.577Z" fill="#2E2E3F"/>
<path d="M246.283 259.301H57.1249V263.804H246.283V259.301Z" fill="#FC4C02"/>
<path d="M241.339 274.435H61.1689V278.938H241.339V274.435Z" fill="#FC4C02"/>
<path d="M236.397 289.569H67.0107V294.073H236.397V289.569Z" fill="#63666A"/>
<path d="M231.453 304.704H72.8499V309.207H231.453V304.704Z" fill="#63666A"/>
<path d="M226.511 319.838H78.6912V324.341H226.511V319.838Z" fill="#63666A"/>
<path d="M69.1198 239.715L64.881 241.258L101.267 340.817L105.506 339.274L69.1198 239.715Z" fill="#63666A"/>
<path d="M121.739 239.842L117.411 241.114L146.39 339.324L150.719 338.052L121.739 239.842Z" fill="#63666A"/>
<path d="M165.98 239.062L161.471 239.213L164.837 339.434L169.347 339.284L165.98 239.062Z" fill="#63666A"/>
<path d="M217.832 241.821L187.523 340.03L191.835 341.356L222.144 243.147L217.832 241.821Z" fill="#63666A"/>
</g>
<defs>
<linearGradient id="paint0_linear_505_0" x1="236.984" y1="344.11" x2="233.634" y2="461.816" gradientUnits="userSpaceOnUse">
<stop offset="0.01"/>
<stop offset="0.13" stop-opacity="0.69"/>
<stop offset="1" stop-opacity="0"/>
</linearGradient>
<linearGradient id="paint1_linear_505_0" x1="20293.2" y1="12824.9" x2="18947.4" y2="16220.1" gradientUnits="userSpaceOnUse">
<stop offset="0.01"/>
<stop offset="0.13" stop-opacity="0.69"/>
<stop offset="1" stop-opacity="0"/>
</linearGradient>
<linearGradient id="paint2_linear_505_0" x1="4537.06" y1="13741.9" x2="4712.25" y2="13741.9" gradientUnits="userSpaceOnUse">
<stop offset="0.01"/>
<stop offset="0.13" stop-opacity="0.69"/>
<stop offset="1" stop-opacity="0"/>
</linearGradient>
<linearGradient id="paint3_linear_505_0" x1="4932.11" y1="8367.87" x2="5565.42" y2="8662.18" gradientUnits="userSpaceOnUse">
<stop offset="0.01"/>
<stop offset="0.13" stop-opacity="0.69"/>
<stop offset="1" stop-opacity="0"/>
</linearGradient>
<linearGradient id="paint4_linear_505_0" x1="10915.5" y1="18281.4" x2="7373.74" y2="18221.4" gradientUnits="userSpaceOnUse">
<stop offset="0.01"/>
<stop offset="0.13" stop-opacity="0.69"/>
<stop offset="1" stop-opacity="0"/>
</linearGradient>
<linearGradient id="paint5_linear_505_0" x1="6417.56" y1="7083.5" x2="6952.14" y2="7083.5" gradientUnits="userSpaceOnUse">
<stop offset="0.01"/>
<stop offset="0.13" stop-opacity="0.69"/>
<stop offset="1" stop-opacity="0"/>
</linearGradient>
<linearGradient id="paint6_linear_505_0" x1="5358.54" y1="3462.33" x2="5578.28" y2="3462.33" gradientUnits="userSpaceOnUse">
<stop offset="0.01"/>
<stop offset="0.13" stop-opacity="0.69"/>
<stop offset="1" stop-opacity="0"/>
</linearGradient>
<clipPath id="clip0_505_0">
<rect width="460" height="460" fill="white"/>
</clipPath>
</defs>
</svg>
